<svg width="5069" height="879" viewBox="0 0 5069 879" fill="none" xmlns="http://www.w3.org/2000/svg">
<g clip-path="url(#clip0)">
<path fill-rule="evenodd" clip-rule="evenodd" d="M592.527 0.000205415C562.107 -0.0819621 537.38 24.4971 537.298 54.8991C537.216 85.3011 561.81 110.013 592.23 110.096L863.199 110.827L671.398 414.579L441.437 27.9223C425.894 1.78823 392.095 -6.80494 365.946 8.72888C339.796 24.2627 331.198 58.0412 346.741 84.1752L622.644 548.079C632.437 564.545 650.092 574.74 669.257 574.995C688.423 575.251 706.343 565.53 716.572 549.33L1009.5 85.4269C1020.19 68.4899 1020.84 47.0843 1011.19 29.5333C1001.54 11.9822 983.108 1.0552 963.068 1.00108L592.527 0.000205415ZM55.0855 4C35.3609 4 17.1417 14.536 7.31799 31.6234C-2.50572 48.7109 -2.43441 69.7415 7.50494 86.7621L454.199 851.699C463.653 867.889 480.705 878.158 499.45 878.951C518.196 879.743 536.056 870.949 546.845 855.615L630.976 736.047C648.471 711.182 642.477 676.857 617.588 659.379C592.699 641.901 558.339 647.889 540.844 672.753L506.092 722.144L150.996 114.063H213.331C243.754 114.063 268.417 89.4245 268.417 59.0314C268.417 28.6384 243.754 4 213.331 4H55.0855ZM1713.34 246.49C1733 256.656 1740.68 280.816 1730.51 300.453L1503.09 739.369C1496.22 752.634 1482.52 760.973 1467.57 761C1452.62 761.027 1438.9 752.736 1431.98 739.496L1202.56 300.58C1192.32 280.98 1199.91 256.793 1219.53 246.556C1239.15 236.32 1263.36 243.912 1273.6 263.512L1467.35 634.172L1659.33 263.64C1669.51 244.003 1693.69 236.325 1713.34 246.49ZM2222.62 312.26C2154.32 244.08 2075 232.191 2034.34 236.916C1992.57 235.333 1904.09 247.698 1839.41 312.26C1803.16 348.446 1786.56 397.052 1779.3 439.04C1772.05 480.964 1773.26 521.142 1776.88 546.866C1778.54 562.791 1783.31 586.775 1792.39 611.822C1801.54 637.082 1816.23 666.649 1839.41 689.792C1862.05 712.393 1886.3 734.155 1918.3 749.583C1950.75 765.228 1988.18 773 2036.02 773C2117.58 773 2191.19 730.234 2218.99 708.497C2236.41 694.877 2239.47 669.738 2225.83 652.347C2212.18 634.957 2187 631.901 2169.58 645.521C2149.64 661.114 2093.09 693.008 2036.02 693.008C1997.22 693.008 1972.3 686.781 1953.16 677.553C1933.57 668.109 1917 654.124 1896.07 633.229C1884.4 621.576 1874.79 604.064 1867.74 584.612C1863.73 573.528 1860.92 562.865 1859.08 554.021H2257.89C2277.96 554.021 2294.94 539.196 2297.6 519.338C2303.13 478.148 2294.98 384.496 2222.62 312.26ZM2217.33 474.029H1855.44C1856.09 467.047 1857.02 459.877 1858.27 452.647C1864.11 418.851 1876.23 388.632 1896.07 368.823C1941.25 323.721 2007.63 315.252 2033.37 316.956C2036.36 317.154 2039.37 317.016 2042.33 316.544C2057.75 314.09 2114.35 317.308 2165.95 368.823C2199.77 402.579 2213.15 443.635 2217.33 474.029ZM2464.57 295.091C2513.02 251.909 2577.27 235 2642.27 235C2749.41 235 2819.01 288.978 2843.36 322.514C2856.34 340.396 2852.36 365.408 2834.46 378.379C2816.56 391.35 2791.52 387.369 2778.53 369.486C2768.52 355.689 2722.53 315 2642.27 315C2590.14 315 2547.28 328.591 2517.89 354.784C2489.32 380.249 2468.08 422.443 2468.08 491.5C2468.08 563.898 2484.71 614.276 2511.91 646.076C2538.19 676.794 2579.36 696 2642.27 696C2693.52 696 2726.24 684.624 2745.87 672.945C2755.77 667.055 2762.52 660.998 2766.86 656.001C2769.03 653.497 2770.55 651.324 2771.55 649.642C2772.05 648.806 2772.4 648.13 2772.63 647.632C2772.74 647.385 2772.83 647.193 2772.88 647.057L2772.92 646.966L2772.94 646.904L2772.96 646.851C2779.95 625.893 2802.63 614.567 2823.61 621.553C2844.59 628.539 2855.93 651.191 2848.93 672.149C2833.27 719.097 2767.93 776 2642.27 776C2562.03 776 2496.08 750.706 2451.03 698.049C2406.91 646.474 2388 574.602 2388 491.5C2388 405.057 2415.31 339.001 2464.57 295.091ZM2923 245C2900.91 245 2883 262.909 2883 285C2883 307.091 2900.91 325 2923 325H2987.03V628.447C2986.57 650.819 2991.39 684.121 3009.11 713.381C3028.39 745.226 3062.61 771 3114 771C3150.85 771 3176.26 769.044 3193.51 766.117C3201.99 764.679 3209.91 762.778 3216.72 760.077C3220.06 758.751 3224.49 756.713 3228.89 753.551C3232.28 751.12 3241.28 744.11 3245.25 731.117C3251.71 709.968 3239.74 687.604 3218.53 681.167C3206.42 677.493 3193.92 679.801 3184.22 686.391C3183.63 686.52 3182.95 686.66 3182.17 686.811C3181.53 686.932 3180.82 687.06 3180.04 687.192C3169.03 689.061 3148.61 690.941 3114 690.941C3093.92 690.941 3084.32 682.69 3077.85 672.003C3069.95 658.965 3067.03 641.527 3067.31 629.876C3067.32 629.549 3067.33 629.222 3067.33 628.895V325H3175C3197.09 325 3215 307.091 3215 285C3215 262.909 3197.09 245 3175 245H3067.33V134.03C3067.33 111.922 3049.35 94 3027.18 94C3005 94 2987.03 111.922 2987.03 134.03V245H2923ZM3365.08 507C3365.08 432.213 3393.1 387.61 3427.53 360.708C3463.58 332.543 3510.42 321 3549.75 321C3587.99 321 3633.04 333.645 3667.79 362.508C3701.25 390.3 3727.92 435.315 3727.92 507C3727.92 580.416 3703.91 623.871 3673.34 649.716C3641.59 676.567 3597.28 689 3549.75 689C3511.76 689 3464.72 678.249 3428.25 650.835C3393.59 624.785 3365.08 581.327 3365.08 507ZM3549.75 241C3497 241 3431.48 256.057 3378.2 297.692C3323.29 340.59 3285 408.987 3285 507C3285 605.473 3324.56 673.015 3380.11 714.765C3433.84 755.151 3499.16 769 3549.75 769C3609.83 769 3674.63 753.433 3725.07 710.784C3776.71 667.129 3808 599.584 3808 507C3808 412.685 3771.61 344.7 3718.99 300.992C3667.65 258.355 3603.61 241 3549.75 241ZM3951 235C3973.09 235 3991 252.925 3991 275.036V282.694C3998.14 277.398 4005.71 272.732 4013.65 268.682C4066.22 241.848 4126.03 246.859 4164.11 257.875C4185.3 264.005 4197.53 286.233 4191.43 307.524C4185.33 328.814 4163.21 341.104 4142.02 334.974C4115.38 327.269 4078.12 325.762 4049.81 340.213C4025.74 352.5 3998.85 381.07 3998.85 455.884C3998.85 464.836 3995.93 473.103 3991 479.778V744.964C3991 767.075 3973.09 785 3951 785C3928.91 785 3911 767.075 3911 744.964V275.036C3911 252.925 3928.91 235 3951 235ZM4299 720C4299 748.167 4276.17 771 4248 771C4219.83 771 4197 748.167 4197 720C4197 691.833 4219.83 669 4248 669C4276.17 669 4299 691.833 4299 720ZM4858 274.036C4858 251.925 4840.09 234 4818 234C4795.91 234 4778 251.925 4778 274.036V307.994C4774.66 304.848 4771.24 301.821 4767.74 298.913C4717.68 257.223 4656.78 242.93 4610.32 242.93C4561.66 242.93 4499.87 262.421 4449.82 305.043C4398.44 348.795 4360 416.502 4360 509.801C4360 604.925 4405.41 674.823 4458.32 718.754C4484.6 740.57 4513.12 756.368 4539.77 766.115C4564.11 775.011 4590.36 780.115 4613.32 777.158C4667.36 776.657 4727.98 762.532 4775.8 720.133C4776.25 719.738 4776.69 719.34 4777.13 718.941C4777.42 718.68 4777.71 718.418 4778 718.155V744.964C4778 767.075 4795.91 785 4818 785C4840.09 785 4858 767.075 4858 744.964V274.036ZM5028.03 98C5050.1 98 5068 115.9 5068 137.981V175.962C5068 198.043 5050.1 215.943 5028.03 215.943C5005.95 215.943 4988.06 198.043 4988.06 175.962V137.981C4988.06 115.9 5005.95 98 5028.03 98ZM4501.64 365.927C4467.46 395.04 4439.94 440.779 4439.94 509.801C4439.94 576.998 4471.32 625.627 4509.38 657.226C4528.59 673.174 4549.11 684.393 4567.22 691.013C4586.33 698.002 4599.04 698.556 4603.62 697.776C4605.83 697.4 4608.08 697.21 4610.32 697.21C4652.97 697.21 4693.41 686.326 4722.77 660.295C4751.18 635.107 4775.21 590.406 4775.21 509.801C4775.21 431.371 4747.89 386.431 4716.59 360.363C4683.84 333.087 4642.31 322.891 4610.32 322.891C4580.55 322.891 4537.16 335.684 4501.64 365.927ZM5069 273.036C5069 250.925 5051.09 233 5029 233C5006.91 233 4989 250.925 4989 273.036V743.964C4989 766.075 5006.91 784 5029 784C5051.09 784 5069 766.075 5069 743.964V273.036Z" fill="black"/>
</g>
<defs>
<clipPath id="clip0">
<rect width="5069" height="879" fill="white"/>
</clipPath>
</defs>
</svg>
